<svg width="734" height="640" fill="none" xmlns="http://www.w3.org/2000/svg" xmlns:xlink="http://www.w3.org/1999/xlink"><path fill="url(#a)" d="M0 0h734v640H0z"/><defs><pattern id="a" patternContentUnits="objectBoundingBox" width="1" height="1"><use xlink:href="#b" transform="matrix(.00136 0 0 .00156 -.004 0)"/></pattern><image id="b" width="740" height="640" xlink:href="img/home.jpg"/></defs><path d="M222 532l220.8 8 69.2-13.7V548l-68.5 19.7-221.5-11V532z" fill="#3595F6" fill-opacity=".75"/><path d="M223 531v-25l220.3 3.3L513 506v20l-69.3 13-220.7-8z" fill="#3595F6" fill-opacity=".75"/><path d="M223 505v-25h290v23l-68 7-222-5z" fill="#3595F6" fill-opacity=".75"/><path d="M223 481v-25l221.3-3.7L512 459v22h-68" fill="#3595F6" fill-opacity=".75"/><path d="M223 455v-26l221.5-3.3 68.5 11V458l-69-6.7-221 3.7z" fill="#3595F6" fill-opacity=".75"/><path d="M222 428v-23.7L443 392l71 23v21.3L443 424l-221 4z" fill="#3595F6" fill-opacity=".75"/><path d="M222 406v-25l222.2-16.3 69.8 28.6V414l-70.3-21.7L222 406z" fill="#3595F6" fill-opacity=".75"/><path d="M222 381v-25l222.5-20.3 69.5 36.6V393l-72-28.7L222 381z" fill="#3595F6" fill-opacity=".75"/><path d="M222 355v-24l223-24.7 69 44V372l-69.3-38L222 355z" fill="#3595F6" fill-opacity=".75"/><path d="M222 330v-24l222.5-28.7 69.5 51V349l-70.3-42.3L222 330z" fill="#3595F6" fill-opacity=".75"/><path d="M221 306v-24l222.3-33 70.7 59.3V328l-70-50.7L221 306z" fill="#3595F6" fill-opacity=".75"/><path d="M222 281v-24l221.2-35 69.8 64v21l-68.7-58.3L222 281z" fill="#3595F6" fill-opacity=".75"/><path d="M222 257v-25l222.3-38 68.7 70.3V285l-69-64-222 36z" fill="#3595F6" fill-opacity=".75"/><path d="M222 231v-25l220.8-43.7 70.2 79V264l-69-73.3L222 231z" fill="#3595F6" fill-opacity=".75"/><path d="M223 207v-25l220-48 70 85v23l-70.7-79.3L223 207z" fill="#3595F6" fill-opacity=".75"/><path d="M222 182v-25l219.8-52 71.2 92.3V220l-69.7-86.3L222 182z" fill="#3595F6" fill-opacity=".75"/><path d="M222 157v-26l222-56.7L513 176v21l-69.3-91.7L222 157z" fill="#3595F6" fill-opacity=".75"/></svg>